<?xml version="1.0" standalone="no"?>
<!DOCTYPE svg PUBLIC "-//W3C//DTD SVG 20010904//EN"
 "http://www.w3.org/TR/2001/REC-SVG-20010904/DTD/svg10.dtd">
<svg version="1.0" xmlns="http://www.w3.org/2000/svg"
 width="323.000000pt" height="323.000000pt" viewBox="0 0 323.000000 323.000000"
 preserveAspectRatio="xMidYMid meet">
<metadata>
Created by potrace 1.11, written by Peter Selinger 2001-2013
</metadata>
<g transform="translate(0.000000,323.000000) scale(0.100000,-0.100000)"
fill="#000000" stroke="none">
<path d="M970 2355 c0 -24 2 -25 65 -25 63 0 65 1 65 25 0 24 -2 25 -65 25
-63 0 -65 -1 -65 -25z"/>
<path d="M1250 2355 c0 -24 2 -25 65 -25 63 0 65 1 65 25 0 24 -2 25 -65 25
-63 0 -65 -1 -65 -25z"/>
<path d="M1890 2355 c0 -24 2 -25 65 -25 63 0 65 1 65 25 0 24 -2 25 -65 25
-63 0 -65 -1 -65 -25z"/>
<path d="M2170 2355 c0 -24 2 -25 65 -25 63 0 65 1 65 25 0 24 -2 25 -65 25
-63 0 -65 -1 -65 -25z"/>
<path d="M1150 2295 c-26 -32 13 -81 48 -59 34 22 22 74 -18 74 -10 0 -23 -7
-30 -15z"/>
<path d="M1430 2295 c-26 -32 13 -81 48 -59 34 22 22 74 -18 74 -10 0 -23 -7
-30 -15z"/>
<path d="M2070 2295 c-26 -32 13 -81 48 -59 34 22 22 74 -18 74 -10 0 -23 -7
-30 -15z"/>
<path d="M2350 2295 c-26 -32 13 -81 48 -59 34 22 22 74 -18 74 -10 0 -23 -7
-30 -15z"/>
<path d="M730 1795 c0 -24 2 -25 65 -25 63 0 65 1 65 25 0 24 -2 25 -65 25
-63 0 -65 -1 -65 -25z"/>
<path d="M890 1795 c0 -24 2 -25 65 -25 63 0 65 1 65 25 0 24 -2 25 -65 25
-63 0 -65 -1 -65 -25z"/>
<path d="M1530 1795 c0 -24 2 -25 65 -25 63 0 65 1 65 25 0 24 -2 25 -65 25
-63 0 -65 -1 -65 -25z"/>
<path d="M2170 1795 c0 -24 2 -25 65 -25 63 0 65 1 65 25 0 24 -2 25 -65 25
-63 0 -65 -1 -65 -25z"/>
<path d="M2450 1795 c0 -24 2 -25 65 -25 63 0 65 1 65 25 0 24 -2 25 -65 25
-63 0 -65 -1 -65 -25z"/>
<path d="M630 1735 c-26 -32 13 -81 48 -59 34 22 22 74 -18 74 -10 0 -23 -7
-30 -15z"/>
<path d="M1430 1735 c-26 -32 13 -81 48 -59 34 22 22 74 -18 74 -10 0 -23 -7
-30 -15z"/>
<path d="M1710 1735 c-26 -32 13 -81 48 -59 34 22 22 74 -18 74 -10 0 -23 -7
-30 -15z"/>
<path d="M2350 1735 c-26 -32 13 -81 48 -59 34 22 22 74 -18 74 -10 0 -23 -7
-30 -15z"/>
<path d="M2630 1735 c-26 -32 13 -81 48 -59 34 22 22 74 -18 74 -10 0 -23 -7
-30 -15z"/>
</g>
</svg>
